<svg width="24" height="24" viewBox="0 0 24 24" fill="none" xmlns="http://www.w3.org/2000/svg">
<rect width="24" height="24" fill="#FFBEBC"/>
<path d="M11.7029 8.93091C9.83966 8.93091 8.33673 10.4338 8.33673 12.2971C8.33673 14.1604 9.83966 15.6633 11.7029 15.6633C13.5662 15.6633 15.0692 14.1604 15.0692 12.2971C15.0692 10.4338 13.5662 8.93091 11.7029 8.93091ZM11.7029 14.4856C10.4988 14.4856 9.51446 13.5042 9.51446 12.2971C9.51446 11.0901 10.4959 10.1086 11.7029 10.1086C12.91 10.1086 13.8914 11.0901 13.8914 12.2971C13.8914 13.5042 12.907 14.4856 11.7029 14.4856ZM15.992 8.79321C15.992 9.22974 15.6404 9.57837 15.2068 9.57837C14.7703 9.57837 14.4217 9.22681 14.4217 8.79321C14.4217 8.35962 14.7733 8.00806 15.2068 8.00806C15.6404 8.00806 15.992 8.35962 15.992 8.79321ZM18.2215 9.59009C18.1717 8.53833 17.9315 7.60669 17.1609 6.83911C16.3934 6.07153 15.4617 5.8313 14.41 5.77856C13.326 5.71704 10.077 5.71704 8.99298 5.77856C7.94415 5.82837 7.01251 6.0686 6.242 6.83618C5.4715 7.60376 5.23419 8.5354 5.18146 9.58716C5.11993 10.6711 5.11993 13.9202 5.18146 15.0041C5.23126 16.0559 5.4715 16.9875 6.242 17.7551C7.01251 18.5227 7.94122 18.7629 8.99298 18.8157C10.077 18.8772 13.326 18.8772 14.41 18.8157C15.4617 18.7659 16.3934 18.5256 17.1609 17.7551C17.9285 16.9875 18.1688 16.0559 18.2215 15.0041C18.283 13.9202 18.283 10.6741 18.2215 9.59009ZM16.8211 16.1672C16.5926 16.7415 16.1502 17.1838 15.5731 17.4153C14.7088 17.7581 12.658 17.679 11.7029 17.679C10.7479 17.679 8.69415 17.7551 7.83282 17.4153C7.25861 17.1868 6.81622 16.7444 6.58478 16.1672C6.242 15.303 6.32111 13.2522 6.32111 12.2971C6.32111 11.342 6.24493 9.28833 6.58478 8.427C6.81329 7.85278 7.25568 7.4104 7.83282 7.17895C8.69708 6.83618 10.7479 6.91528 11.7029 6.91528C12.658 6.91528 14.7117 6.83911 15.5731 7.17895C16.1473 7.40747 16.5897 7.84985 16.8211 8.427C17.1639 9.29126 17.0848 11.342 17.0848 12.2971C17.0848 13.2522 17.1639 15.3059 16.8211 16.1672Z" fill="#FF1D15"/>
</svg>
