<svg width="24" height="24" viewBox="0 0 24 24" fill="none" xmlns="http://www.w3.org/2000/svg">
<rect width="24" height="24" fill="#FFBEBC"/>
<g clip-path="url(#clip0_79_42)">
<path d="M17.6581 9.24416C17.6676 9.3774 17.6676 9.51067 17.6676 9.64392C17.6676 13.708 14.5744 18.3907 8.92082 18.3907C7.17906 18.3907 5.56106 17.8863 4.20001 17.0107C4.44748 17.0392 4.6854 17.0487 4.9424 17.0487C6.37955 17.0487 7.70254 16.5633 8.75902 15.7353C7.40749 15.7067 6.27488 14.8216 5.88464 13.6033C6.07501 13.6318 6.26535 13.6509 6.46525 13.6509C6.74125 13.6509 7.01729 13.6128 7.27425 13.5462C5.86563 13.2606 4.80912 12.0233 4.80912 10.5291V10.491C5.21837 10.7194 5.6943 10.8622 6.1987 10.8812C5.37066 10.3292 4.82817 9.38692 4.82817 8.32093C4.82817 7.74987 4.98042 7.2264 5.24694 6.76954C6.76027 8.63502 9.03502 9.85327 11.5858 9.98654C11.5382 9.75812 11.5096 9.5202 11.5096 9.28225C11.5096 7.58807 12.8802 6.20801 14.5838 6.20801C15.469 6.20801 16.2685 6.5792 16.83 7.17882C17.5248 7.04558 18.1911 6.78858 18.7812 6.43644C18.5527 7.15028 18.0673 7.7499 17.4297 8.13059C18.0483 8.06399 18.6479 7.89264 19.2 7.65472C18.7812 8.26383 18.2577 8.80632 17.6581 9.24416Z" fill="#FF1D15"/>
</g>
<defs>
<clipPath id="clip0_79_42">
<rect width="15" height="15" fill="white" transform="translate(4.20001 4.7998)"/>
</clipPath>
</defs>
</svg>
