<svg width="24" height="24" viewBox="0 0 24 24" fill="none" xmlns="http://www.w3.org/2000/svg">
<rect width="24" height="24" fill="#FFBEBC"/>
<g clip-path="url(#clip0_79_49)">
<path d="M7.35759 20H4.24777V9.98527H7.35759V20ZM5.801 8.61917C4.80658 8.61917 4 7.79549 4 6.80104C4 6.32338 4.18975 5.86528 4.5275 5.52751C4.86526 5.18975 5.32335 5 5.801 5C6.27866 5 6.73675 5.18975 7.07451 5.52751C7.41226 5.86528 7.60201 6.32338 7.60201 6.80104C7.60201 7.79549 6.79509 8.61917 5.801 8.61917ZM18.9967 20H15.8935V15.1249C15.8935 13.963 15.8701 12.473 14.2767 12.473C12.6598 12.473 12.4121 13.7354 12.4121 15.0412V20H9.30558V9.98527H12.2882V11.3514H12.3317C12.7469 10.5645 13.761 9.73415 15.2741 9.73415C18.4214 9.73415 19 11.8067 19 14.4988V20H18.9967Z" fill="#FF1D15"/>
</g>
<defs>
<clipPath id="clip0_79_49">
<rect width="15" height="15" fill="white" transform="translate(4.20001 4.7998)"/>
</clipPath>
</defs>
</svg>
